# xmcd CD database file
#
# Track frame offsets:
#	150
#	24750
#	45750
#	73125
#	95842
#	140647
#	162900
#	175875
#	192675
#	215400
#	238725
#	250275
#	261825
#	284925
#	315225
#
# Disc length: 4404 seconds
#
# Revision: 6
# Processed by: cddbd v1.4PL0 Copyright (c) Steve Scherf et al.
# Submitted via: CDex 1.51
#
DISCID=e211320f
DTITLE=Locomotiv GT - Búcsúkoncert
DYEAR=1992
DGENRE=Pop
TTITLE0=Zenevonat
TTITLE1=Ülök a járdán
TTITLE2=Sziszifuszi blues
TTITLE3=Embertelen dal
TTITLE4=És jött a doktor
TTITLE5=Álomarcú lány
TTITLE6=Ha a csend beszélni tudna
TTITLE7=Miénk itt a tér
TTITLE8=Rajongás
TTITLE9=Primadonna
TTITLE10=Áldd meg a dalt
TTITLE11=Volt egyszer egy zenekar
TTITLE12=Õ még csak 14
TTITLE13=Neked írom a dalt
TTITLE14=A szél lassan elfújja utolsó dalom
EXTD=YEAR: 1992
EXTT0=(Presser-Dus n]\n
EXTT1=(Soml -Adamis]\n
EXTT2=(Presser-Dus n]\n
EXTT3=(Presser-Soml -Dus n]\n
EXTT4=(Presser]\n
EXTT5=(Soml -Adamis]\n
EXTT6=(Soml -Adamis]\n
EXTT7=(Presser-Adamis]\n
EXTT8=(Kar csony-Adamis]\n
EXTT9=(Soml -Dus n]\n
EXTT10=(Kar csony-Dus n]\n
EXTT11=(Presser-Dus n]\n
EXTT12=(Barta-Adamis]\n
EXTT13=(Presser]\n
EXTT14=(Presser]\n
PLAYORDER=
